# xmcd
#
# Track frame offsets:
#	150
#	16590
#	40012
#	57022
#	67397
#	80577
#	98215
#	107100
#	119945
#	136740
#	149952
#	169110
#	183820
#	198627
#	218472
#	232145
#
# Disc length: 3224 seconds
#
# Revision: 1
# Processed by: cddbd v1.5.2PL0 Copyright (c) Steve Scherf et al.
# Submitted via: audiograbber 1.83.01
#
DISCID=ed0c9610
DTITLE=Ray Charles - Vol. 1
DYEAR=1900
DGENRE=Blues/Rock
TTITLE0=Georgia On My Mind
TTITLE1=What'd I Say
TTITLE2=Don't Let The Sun Catch You Cryin'
TTITLE3=Sticks And Stones
TTITLE4=Cryin' Time
TTITLE5=Ruby
TTITLE6=Hit The Road Jack
TTITLE7=Unchain My Heart
TTITLE8=Come Rain Or Come Shine
TTITLE9=Let The Good Times Roll
TTITLE10=I Can't Stop Loving You
TTITLE11=Born To Lose
TTITLE12=Hardhearted Hannah (The Vamp Of Savannah )
TTITLE13=That Lucky Old Sun
TTITLE14=Take These Chains From My Heart
TTITLE15=Busted
EXTD=
EXTT0=
EXTT1=
EXTT2=
EXTT3=
EXTT4=
EXTT5=
EXTT6=
EXTT7=
EXTT8=
EXTT9=
EXTT10=
EXTT11=
EXTT12=
EXTT13=
EXTT14=
EXTT15=
PLAYORDER=
